<svg width="20" height="16" viewBox="0 0 20 16" fill="none" xmlns="http://www.w3.org/2000/svg">
<path d="M2.7999 0.800049C1.47442 0.800049 0.399902 1.87457 0.399902 3.20005V4.40005H19.5999V3.20005C19.5999 1.87457 18.5254 0.800049 17.1999 0.800049H2.7999Z" fill="#2480F9"/>
<path fill-rule="evenodd" clip-rule="evenodd" d="M19.5999 6.80005H0.399902V12.8C0.399902 14.1255 1.47442 15.2 2.7999 15.2H17.1999C18.5254 15.2 19.5999 14.1255 19.5999 12.8V6.80005ZM2.7999 11.6C2.7999 10.9373 3.33716 10.4 3.9999 10.4H5.1999C5.86264 10.4 6.3999 10.9373 6.3999 11.6C6.3999 12.2628 5.86264 12.8 5.1999 12.8H3.9999C3.33716 12.8 2.7999 12.2628 2.7999 11.6ZM8.7999 10.4C8.13716 10.4 7.5999 10.9373 7.5999 11.6C7.5999 12.2628 8.13716 12.8 8.7999 12.8H9.9999C10.6626 12.8 11.1999 12.2628 11.1999 11.6C11.1999 10.9373 10.6626 10.4 9.9999 10.4H8.7999Z" fill="#2480F9"/>
</svg>
