<svg xmlns="http://www.w3.org/2000/svg" width="100" height="100" id="visa"><g fill-rule="evenodd" transform="translate(82.678 -384.048)"><rect width="63.214" height="40.714" x="-61.758" y="413.183" fill="#fff" stroke="#000" stroke-linecap="round" stroke-linejoin="round" stroke-width=".8" rx="3.599" ry="3.599"></rect><path d="m-35.72 425.916-2.503 15.39h4.006l2.505-15.39h-4.007zm-5.874 0-3.82 10.585-.452-2.28v.001l-.1-.51a12.762 12.762 0 0 0-3.554-4.506c-.598-.478-1.2-.886-1.783-1.234l3.472 13.334h4.174l6.375-15.39h-4.312zm15.636 4.273c0-1.74 3.902-1.517 5.617-.572l.572-3.305s-1.765-.671-3.604-.671c-1.988 0-6.71.87-6.71 5.094 0 3.977 5.542 4.026 5.542 6.114 0 2.087-4.97 1.714-6.61.397l-.597 3.455s1.789.87 4.523.87 6.86-1.417 6.86-5.269c0-4.001-5.593-4.374-5.593-6.113zm16.35-4.273h-3.221c-1.488 0-1.85 1.147-1.85 1.147l-5.975 14.243h4.176l.835-2.286h5.094l.47 2.286H-6.4l-3.208-15.39zm-4.88 9.946 2.105-5.76 1.185 5.76h-3.29z"></path><path d="M-47.159 427.365s-.166-1.39-1.936-1.39h-6.433l-.075.262s3.092.63 6.058 2.992c2.835 2.257 3.76 5.07 3.76 5.07l-1.374-6.934z"></path></g></svg>